<svg width="38" height="38" viewBox="0 0 38 38" fill="none" xmlns="http://www.w3.org/2000/svg">
<path d="M13 17.6072C13 14.2345 15.6865 11.5 19 11.5C22.3135 11.5 25 14.2345 25 17.6072C25 20.9537 23.0853 24.8597 20.0973 26.2555C19.7538 26.4163 19.3792 26.4997 19 26.4997C18.6208 26.4997 18.2462 26.4163 17.9027 26.2555C14.9147 24.859 13 20.9545 13 17.608V17.6072Z" stroke="white" stroke-width="1.5"/>
<path d="M19 19.75C20.2426 19.75 21.25 18.7426 21.25 17.5C21.25 16.2574 20.2426 15.25 19 15.25C17.7574 15.25 16.75 16.2574 16.75 17.5C16.75 18.7426 17.7574 19.75 19 19.75Z" stroke="white" stroke-width="1.5"/>
</svg>
